#!OML:ASF F:\VICON\USERDATA\INSTALL\rory3\rory3.ASF
:FULLY-SPECIFIED
:DEGREES
80
root 0.9384497632566698 17.823929647926317 45.877993445758534 -3.9736440227729473 -4.289301613620446 -1.504479788387317
lfemur -16.80971966014888 -2.2321354788964958 -19.82595709824796
ltibia 25.38561186211547
lfoot -5.04171903305209 -2.980909687454896
ltoes -3.220641356760731
rfemur -8.287154806917126 -0.22480505004770768 25.703140476588313
rtibia 47.29960776692249
rfoot 11.97147276909798 -2.1248956507164074
rtoes 12.363074021226419
lowerback 10.314096006887967 2.290496902105466 1.1614611060538598
upperback -0.29130425444807917 3.3453269863938995 0.817587639068325
thorax -5.911255238804312 1.593157183141997 -1.5171390988850593
lowerneck -16.123797271143065 -3.1967616485291352 -2.6307655599699844
upperneck 22.31593998622423 -4.125408668752025 1.6364280653809171
head 9.772313402961096 -1.9369464400723917 0.5840302602083949
lclavicle -2.028431920065095e-15 -7.130065510714136e-16
lhumerus -36.460690877421506 10.2643149225153 78.68233758533479
lradius 18.356066726187482
lwrist 4.30088273245623
lhand -27.372401764202078 20.44336668453308
lfingers 7.12502
lthumb -0.8984928578437332 50.61523678856136
rclavicle -2.0274396848374486e-15 -7.123608224675194e-16
rhumerus -28.008547872167558 -20.086849376282956 -77.86053169160287
rradius 27.38283847177818
rwrist 3.654709078779128
rhand -18.107824595443567 23.71155438121214
rfingers 7.12502
rthumb 8.11413341945195 -6.231665516348634
81
root 0.9711858949348595 17.879517728283325 46.56920711810032 -4.3779248307166645 -3.7410027153549352 -0.42292210292468635
lfemur -12.738314060313478 -2.600013734219899 -21.7545387960881
ltibia 25.12540146332592
lfoot -6.352649460903339 -2.292826413847682
ltoes -2.664448616322608
rfemur -13.09141140766122 -1.923310738016328 24.168341907938203
rtibia 53.50427613329375
rfoot 12.307413426753977 -5.647586950041184
rtoes 16.948719929364383
lowerback 10.565172199620378 1.81442928206468 -0.005915171158178745
upperback -0.0830248470911763 2.5472908316606824 0.6495278961060127
thorax -5.945836159018118 1.256236135781054 -0.8295782299746126
lowerneck -16.093648417636036 -3.1295393205637208 -2.706661745116816
upperneck 22.21624190383463 -4.0234155176778765 1.7308658084924249
head 9.703715147132952 -1.8975857891415335 0.6336550253281364
lclavicle -2.0286475012353885e-15 -7.131428691875249e-16
lhumerus -35.27052419928174 8.593902826100482 79.35399320941809
lradius 18.828668347829755
lwrist 6.304876463894805
lhand -28.00456295968186 19.970781516190062
lfingers 7.12502
lthumb -1.59940288240596 50.06155789676578
rclavicle -2.0277926608653852e-15 -7.125862116527421e-16
rhumerus -28.192646645556703 -20.384269580599 -77.83054308811495
rradius 25.63656834877917
rwrist 5.09231677566542
rhand -17.77730319679206 23.450951115522155
rfingers 7.12502
rthumb 8.451842307771368 -6.510127380370731
82
root 0.9823443685646216 17.910053469014464 47.06425043800342 -4.638185471716269 -3.010200362611895 0.020797436632833843
lfemur -8.840784000652068 -2.9019831682144437 -22.884463519997137
ltibia 24.287886228827062
lfoot -7.626281584024327 -1.6600805486205599
ltoes -2.624153250576528
rfemur -17.582754984222497 -3.0981836948880606 23.62258508472843
rtibia 56.9626661833685
rfoot 5.419805281424319 -10.157450932914703
rtoes 12.30328424836105
lowerback 10.766356118430082 1.2472196716025046 -0.7241957205388798
upperback 0.06692503786198617 1.7009218683136105 0.6720741807457316
thorax -5.980982051736149 0.8612119010026675 -0.17105541062691954
lowerneck -16.05417351133635 -3.0648797824755554 -2.801041722042578
upperneck 22.22597450428295 -3.8961144989988528 1.6719371121662032
head 9.695253313463729 -1.858838158124564 0.6408710691625822
lclavicle -2.028069603508962e-15 -7.127723198916156e-16
lhumerus -33.589010392612 6.96179898830272 79.76217818430564
lradius 19.75979679050242
lwrist 5.791406664014976
lhand -28.352086941631665 19.98831109521913
lfingers 7.12502
lthumb -1.9023478615012843 50.09195426657629
rclavicle -2.028328525261073e-15 -7.129283684772295e-16
rhumerus -28.632747595864522 -20.821262266040588 -77.6635788728663
rradius 24.6254017428625
rwrist 6.084663284538573
rhand -17.523038416427113 23.090309754449336
rfingers 7.12502
rthumb 8.722298989809344 -6.991192896099656
83
root 0.9797585217577873 17.90221434971284 47.54001758872035 -4.660258341147896 -1.8144731575754673 0.3144250773701027
lfemur -5.50856986910007 -3.3196067590479936 -23.819632732810618
ltibia 23.89249718799727
lfoot -9.18509447438294 -1.1711877543979372
ltoes -3.199003139857771
rfemur -21.536446374995986 -3.8219779532442564 23.315533645797885
rtibia 57.361049477388676
rfoot 0.7345034254515763 -12.955433270042963
rtoes 10.535703023769711
lowerback 10.944101594554684 0.5485663521293221 -1.25268377668318
upperback 0.09872906846430002 0.6813042322032976 0.7748501069318208
thorax -6.059323961456161 0.3653677842273208 0.5955530246422457
lowerneck -16.011215532237863 -3.06033179763734 -2.9800138959342517
upperneck 22.26675974086527 -3.859176194788974 1.707674413682767
head 9.714661066529354 -1.8523854148781567 0.668273044941406
lclavicle -2.0276932971684822e-15 -7.125313897341829e-16
lhumerus -31.805340066687556 4.947854350919432 80.16267843138748
lradius 20.80340159226863
lwrist 5.695808698869531
lhand -28.75953859907379 20.097410813649145
lfingers 7.12502
lthumb -2.13769391194637 50.36846457444009
rclavicle -2.0273559227600928e-15 -7.12307342974084e-16
rhumerus -29.47521383818981 -20.763446662710937 -77.5496317737182
rradius 24.44001309449513
rwrist 5.715516704970683
rhand -17.39102166604039 22.74472019691415
rfingers 7.12502
rthumb 8.720402259743878 -7.430766542450166
